<?xml version="1.0" encoding="utf-8"?>
<!-- Generator: Adobe Illustrator 24.2.3, SVG Export Plug-In . SVG Version: 6.00 Build 0)  -->
<svg version="1.1" id="Capa_1" xmlns="http://www.w3.org/2000/svg" xmlns:xlink="http://www.w3.org/1999/xlink" x="0px" y="0px"
	 viewBox="0 0 512 512" style="enable-background:new 0 0 512 512;" xml:space="preserve">
<style type="text/css">
	.st0{stroke:#000000;stroke-miterlimit:10;}
	.st1{stroke:#000000;stroke-miterlimit:9.9997;}
	.st2{stroke:#000000;stroke-miterlimit:9.9998;}
</style>
<g>
	<path d="M333.9,180.2h-38.6l-3.8-11.8c-2.4-7.5-9-12.5-16.4-12.5h-37.3c-7.4,0-14.1,5-16.4,12.5l-3.8,11.8h-9.3v-10.1
		c0-7.8-6-14.2-13.5-14.2h-7.7c-7.4,0-13.5,6.4-13.5,14.2V181c-9.1,2.5-15.8,11.2-15.8,21.5v105.3c0,12.3,9.5,22.3,21.2,22.3h154.9
		c11.7,0,21.2-10,21.2-22.3V202.5C355.2,190.3,345.6,180.2,333.9,180.2z M185.2,170.1c0-1.1,0.9-2,1.9-2h7.7c1.1,0,1.9,0.9,1.9,2
		v10.1h-11.6L185.2,170.1L185.2,170.1z M343.6,307.8c0,5.6-4.3,10.1-9.6,10.1H179.1c-5.3,0-9.6-4.6-9.6-10.1V202.5
		c0-5.6,4.3-10.1,9.6-10.1h42.8c2.5,0,4.7-1.7,5.5-4.2l5.1-16c0.8-2.5,3-4.2,5.5-4.2h37.3c2.5,0,4.7,1.7,5.5,4.2l5.1,16
		c0.8,2.5,3,4.2,5.5,4.2h42.8c5.3,0,9.6,4.6,9.6,10.1L343.6,307.8L343.6,307.8z"/>
	<ellipse cx="325.9" cy="210.6" rx="5.8" ry="6"/>
	<path d="M198.7,204.5h-11.6c-3.2,0-5.8,2.7-5.8,6s2.6,6,5.8,6h11.6c3.2,0,5.8-2.7,5.8-6S201.9,204.5,198.7,204.5z"/>
	<g>
		<path d="M256.5,305.8c-28.7,0-52-24.6-52-54.7s23.3-54.7,52-54.7s52,24.6,52,54.7S285.2,305.8,256.5,305.8z M256.5,208.6
			c-22.3,0-40.4,19.1-40.4,42.5s18.2,42.5,40.4,42.5s40.4-19.1,40.4-42.5S278.8,208.6,256.5,208.6z"/>
	</g>
	<g>
		<path d="M256.5,281.5c-15.9,0-28.9-13.6-28.9-30.4s12.9-30.4,28.9-30.4s28.9,13.6,28.9,30.4S272.5,281.5,256.5,281.5z
			 M256.5,232.9c-9.5,0-17.4,8.2-17.4,18.2c0,10.1,7.8,18.2,17.4,18.2c9.6,0,17.4-8.2,17.4-18.2
			C273.9,241.1,266.1,232.9,256.5,232.9z"/>
	</g>
</g>
<rect x="187.9" y="141.8" class="st0" width="6.2" height="11"/>
<polygon class="st1" points="170.7,149.6 175.8,146.1 181.5,155.3 176.3,158.9 "/>
<polygon class="st2" points="205.6,145.2 210.8,148.4 205.6,158 200.3,154.7 "/>
</svg>
