
<svg xmlns="http://www.w3.org/2000/svg" viewBox="0 0 110 101" >
<style type="text/css">
	.st0{fill:none;stroke:#FFFFFF;stroke-width:4;stroke-miterlimit:10;stroke-opacity:0;}
</style>
<g>
	<g>
		<path d="M84.7,29.5L84.7,29.5L84.7,29.5h-4.1v-1.8c0-0.8-0.3-1.4-0.8-1.6c-2.8-0.9-5.8-1.5-8.7-1.5c-4.9,0-11.4,1.4-16.2,7.8
			c-4.9-6.5-11.4-7.8-16.2-7.8c-3,0-5.9,0.5-8.7,1.5c-0.6,0.2-0.9,0.9-0.8,1.6v1.8h-4.1c-0.7,0-1.2,0.7-1.2,1.6v49.8
			c0,0.9,0.6,1.6,1.2,1.6c0.2,0,0.4-0.1,0.6-0.2s12.2-8.6,29-3.1h0.2H55c0.1,0.1,0.2,0.1,0.3,0c16.9-5.5,29,2.9,29,3.1
			c0.3,0.3,0.8,0.3,1.2,0c0.3-0.3,0.6-0.8,0.6-1.4V31C86.1,30.2,85.5,29.5,84.7,29.5z M26.2,78.3V32.6h2.9v39.1
			c0,0.9,0.6,1.6,1.2,1.6c0.1,0,0.2,0,0.2-0.1c2.5-0.5,5-0.8,7.5-0.8c3.5-0.1,7,0.6,10.3,2C40.7,73.3,33.1,74.6,26.2,78.3z
			 M37.9,69.4c-2.2,0-4.4,0.2-6.6,0.5V28.9c2.3-0.7,4.7-1,7.1-1c4.6,0,10.8,1.4,15.1,7.7l0.1,38.8C51.2,72.3,46.3,69.4,37.9,69.4z
			 M56,35.5c4.4-6.2,10.6-7.7,15.1-7.7c2.4,0,4.9,0.3,7.1,1v41c-2.2-0.3-4.4-0.5-6.5-0.6c-8.3,0-13.2,2.8-15.7,5L56,35.5L56,35.5z
			 M83.6,78.3c-7-3.7-14.6-5-22.2-3.9c3.3-1.5,6.9-2.1,10.3-2c2.6,0.1,5.1,0.3,7.6,0.8c0.7,0.2,1.2-0.5,1.4-1.3c0-0.1,0-0.2,0-0.3
			V32.6h2.9L83.6,78.3z"/>
	</g>
</g>
<path class="st0" d="M34.5,39.4c0.1-1.5,0.4-3.3,1.6-3.6c0.8-0.2,1.7,0.5,2.1,1.4c0.4,0.9,0.7,1.9,1.2,2.7c0.1,0.1,0.2,0.2,0.2,0.2
	c0.2,0.1,0.4-0.2,0.6-0.3c0.6-0.9,1.2-1.9,1.8-2.8c0.2-0.3,0.4-0.8,0.8-0.8c0.4-0.1,0.8,0.3,1.2,0.9c0.6,0.9,1.1,2,1.3,3.1
	c0.2,0.5,0.2,0.9,0.6,1.3c0.7,0.9,1.8,0.3,2.6-0.3c1.2-0.9,2.2-2.3,2.9-3.8"/>
<path class="st0" d="M34.5,46.9c0.1-1.5,0.4-3.3,1.6-3.6c0.8-0.2,1.7,0.5,2.1,1.4c0.4,0.9,0.7,1.9,1.2,2.7c0.1,0.1,0.2,0.2,0.2,0.2
	c0.2,0.1,0.4-0.2,0.6-0.3c0.6-0.9,1.2-1.9,1.8-2.8c0.2-0.3,0.4-0.8,0.8-0.8c0.4-0.1,0.8,0.3,1.2,0.9c0.6,0.9,1.1,2,1.3,3.1
	c0.2,0.5,0.2,0.9,0.6,1.3c0.7,0.9,1.8,0.3,2.6-0.3c1.2-0.9,2.2-2.3,2.9-3.8"/>
<path class="st0" d="M34.5,54.5c0.1-1.5,0.4-3.3,1.6-3.6c0.8-0.2,1.7,0.5,2.1,1.4c0.4,0.9,0.7,1.9,1.2,2.7c0.1,0.1,0.2,0.2,0.2,0.2
	c0.2,0.1,0.4-0.2,0.6-0.3c0.6-0.9,1.2-1.9,1.8-2.8c0.2-0.3,0.4-0.8,0.8-0.8c0.4-0.1,0.8,0.3,1.2,0.9c0.6,0.9,1.1,2,1.3,3.1
	c0.2,0.5,0.2,0.9,0.6,1.3c0.7,0.9,1.8,0.3,2.6-0.3c1.2-0.9,2.2-2.3,2.9-3.8"/>
<path class="st0" d="M34.5,62.2c0.1-1.5,0.4-3.3,1.6-3.6c0.8-0.2,1.7,0.5,2.1,1.4c0.4,0.9,0.7,1.9,1.2,2.7c0.1,0.1,0.2,0.2,0.2,0.2
	c0.2,0.1,0.4-0.2,0.6-0.3c0.6-0.9,1.2-1.9,1.8-2.8c0.2-0.3,0.4-0.8,0.8-0.8c0.4-0.1,0.8,0.3,1.2,0.9c0.6,0.9,1.1,2,1.3,3.1
	c0.2,0.5,0.2,0.9,0.6,1.3c0.7,0.9,1.8,0.3,2.6-0.3c1.2-0.9,2.2-2.3,2.9-3.8"/>
<path class="st0" d="M58.4,40c0.1-1.5,0.4-3.3,1.6-3.6c0.8-0.2,1.7,0.5,2.1,1.4c0.4,0.9,0.7,1.9,1.2,2.7c0.1,0.1,0.2,0.2,0.2,0.2
	c0.2,0.1,0.4-0.2,0.6-0.3c0.6-0.9,1.2-1.9,1.8-2.8c0.2-0.3,0.4-0.8,0.8-0.8c0.4-0.1,0.8,0.3,1.2,0.9c0.6,0.9,1.1,2,1.3,3.1
	c0.2,0.5,0.2,0.9,0.6,1.3c0.7,0.9,1.8,0.3,2.6-0.3c1.2-0.9,2.2-2.3,2.9-3.8"/>
<path class="st0" d="M58.4,47.6c0.1-1.5,0.4-3.3,1.6-3.6c0.8-0.2,1.7,0.5,2.1,1.4c0.4,0.9,0.7,1.9,1.2,2.7c0.1,0.1,0.2,0.2,0.2,0.2
	c0.2,0.1,0.4-0.2,0.6-0.3c0.6-0.9,1.2-1.9,1.8-2.8c0.2-0.3,0.4-0.8,0.8-0.8c0.4-0.1,0.8,0.3,1.2,0.9c0.6,0.9,1.1,2,1.3,3.1
	c0.2,0.5,0.2,0.9,0.6,1.3c0.7,0.9,1.8,0.3,2.6-0.3c1.2-0.9,2.2-2.3,2.9-3.8"/>
<path class="st0" d="M58.4,55.2c0.1-1.5,0.4-3.3,1.6-3.6c0.8-0.2,1.7,0.5,2.1,1.4c0.4,0.9,0.7,1.9,1.2,2.7c0.1,0.1,0.2,0.2,0.2,0.2
	c0.2,0.1,0.4-0.2,0.6-0.3c0.6-0.9,1.2-1.9,1.8-2.8c0.2-0.3,0.4-0.8,0.8-0.8c0.4-0.1,0.8,0.3,1.2,0.9c0.6,0.9,1.1,2,1.3,3.1
	c0.2,0.5,0.2,0.9,0.6,1.3c0.7,0.9,1.8,0.3,2.6-0.3c1.2-0.9,2.2-2.3,2.9-3.8"/>
<path class="st0" d="M58.4,62.9c0.1-1.5,0.4-3.3,1.6-3.6c0.8-0.2,1.7,0.5,2.1,1.4c0.4,0.9,0.7,1.9,1.2,2.7c0.1,0.1,0.2,0.2,0.2,0.2
	c0.2,0.1,0.4-0.2,0.6-0.3c0.6-0.9,1.2-1.9,1.8-2.8c0.2-0.3,0.4-0.8,0.8-0.8c0.4-0.1,0.8,0.3,1.2,0.9c0.6,0.9,1.1,2,1.3,3.1
	c0.2,0.5,0.2,0.9,0.6,1.3c0.7,0.9,1.8,0.3,2.6-0.3c1.2-0.9,2.2-2.3,2.9-3.8"/>
</svg>
